<?xml version="1.0" standalone="no"?>
<!DOCTYPE svg PUBLIC "-//W3C//DTD SVG 20010904//EN"
 "http://www.w3.org/TR/2001/REC-SVG-20010904/DTD/svg10.dtd">
<svg version="1.0" xmlns="http://www.w3.org/2000/svg"
 width="900.000000pt" height="565.000000pt" viewBox="0 0 900.000000 565.000000"
 preserveAspectRatio="xMidYMid meet">

<g transform="translate(0.000000,565.000000) scale(0.100000,-0.100000)"
fill="#000000" stroke="none">
<path d="M7010 4547 c-27 -14 -52 -78 -33 -84 7 -3 9 -19 6 -43 -4 -27 -2 -40
6 -40 8 0 10 -8 6 -19 -3 -10 3 -42 15 -70 22 -58 93 -158 98 -141 5 13 62
-38 62 -54 0 -6 -11 3 -24 19 -39 49 -40 23 -1 -47 44 -82 47 -127 7 -150 -15
-9 -34 -27 -41 -40 -6 -13 -30 -31 -51 -41 -44 -19 -157 -132 -208 -208 -18
-27 -37 -49 -42 -49 -12 0 -50 -64 -50 -84 0 -9 -18 -36 -40 -58 -23 -25 -40
-52 -40 -65 0 -13 -8 -26 -17 -30 -31 -11 -72 -57 -73 -80 0 -21 -10 -28 -33
-24 -13 2 -77 -50 -77 -63 0 -6 -17 -11 -39 -11 -22 -1 -48 -8 -58 -17 -12
-10 -25 -13 -38 -8 -34 14 -75 11 -81 -5 -6 -13 -8 -14 -18 -1 -6 7 -28 17
-48 20 -43 8 -72 42 -82 97 -4 21 -13 43 -22 50 -8 7 -13 18 -10 25 6 17 -12
73 -30 95 -8 8 -14 26 -14 40 0 13 -11 48 -25 77 -19 41 -25 71 -25 120 0 50
-5 75 -20 97 -11 17 -25 39 -32 50 -7 11 -26 39 -42 63 -15 24 -32 59 -38 78
-15 56 -210 307 -248 319 -22 7 -117 -49 -232 -136 -42 -33 -85 -59 -96 -59
-10 0 -38 -13 -63 -28 -148 -95 -187 -122 -208 -146 -14 -14 -28 -26 -33 -26
-10 0 -162 -59 -231 -90 -35 -16 -52 -31 -62 -54 -24 -57 -43 -67 -110 -56
-58 9 -60 9 -162 -40 -92 -44 -110 -49 -163 -47 -56 2 -62 0 -85 -28 -31 -38
-93 -147 -101 -179 -5 -23 -9 -24 -53 -19 -28 3 -57 1 -69 -6 -16 -9 -26 -9
-41 0 -16 11 -31 4 -105 -46 -47 -32 -86 -64 -86 -70 0 -7 -11 -17 -24 -23
-56 -25 -51 -62 22 -162 l40 -54 -102 -61 c-132 -80 -309 -196 -416 -273 -47
-34 -91 -62 -97 -62 -7 0 -13 -4 -13 -9 0 -9 -195 -85 -250 -97 -19 -4 -39 -9
-45 -11 -5 -2 -46 -9 -91 -17 -44 -8 -98 -19 -120 -24 -21 -6 -61 -14 -89 -18
-27 -4 -57 -8 -65 -10 -16 -2 -426 -40 -545 -49 -38 -3 -77 -8 -85 -10 -70
-18 -392 -22 -542 -6 -55 5 -110 6 -130 1 -18 -5 -50 -13 -71 -18 -63 -16 -99
-53 -143 -143 -23 -46 -45 -99 -48 -117 -4 -17 -12 -32 -17 -32 -5 0 -9 -10
-9 -23 0 -13 -5 -28 -12 -35 -9 -9 -9 -17 0 -34 6 -13 14 -45 17 -72 8 -62 23
-94 57 -128 16 -14 28 -36 28 -49 0 -28 37 -69 56 -62 8 3 30 -9 49 -26 20
-17 40 -31 45 -31 6 0 10 -9 10 -19 0 -13 20 -32 62 -57 35 -21 88 -55 119
-75 38 -26 59 -35 66 -28 12 12 122 -39 123 -56 0 -13 24 -28 152 -92 59 -30
112 -52 117 -48 11 6 125 -46 150 -69 22 -19 113 -54 128 -49 16 6 233 -77
233 -89 0 -4 -17 -1 -37 7 -29 12 -38 13 -45 3 -5 -9 -8 -8 -8 6 0 14 -5 17
-21 13 -12 -3 -22 0 -26 9 -5 15 -23 10 -23 -7 0 -6 4 -8 8 -5 5 3 9 -1 9 -9
0 -9 -4 -11 -11 -6 -6 5 -19 7 -29 6 -9 -2 -15 0 -12 5 6 10 -21 7 -31 -3 -4
-3 -1 -15 7 -24 11 -15 10 -15 -9 1 -17 14 -22 16 -22 5 0 -9 -3 -10 -8 -3 -4
6 -20 10 -35 9 -15 -1 -30 1 -32 5 -2 4 14 6 35 5 26 -1 45 4 53 13 10 13 9
14 -3 7 -8 -6 -32 -10 -53 -10 -31 0 -41 -5 -52 -25 -8 -14 -14 -19 -15 -11 0
11 -3 11 -15 1 -12 -10 -16 -9 -20 2 -4 10 -19 14 -45 13 -22 -1 -40 3 -40 8
0 17 -10 1 -15 -23 -2 -12 -7 -25 -11 -29 -4 -3 -4 2 -1 12 4 9 2 17 -4 17 -6
0 -7 5 -3 11 4 8 0 8 -15 0 -11 -7 -21 -8 -21 -4 0 4 -12 -6 -27 -23 -16 -17
-22 -22 -14 -12 9 11 10 18 3 18 -6 0 -13 -4 -16 -9 -7 -11 -25 -9 -45 3 -10
6 -12 5 -7 -2 11 -18 -5 -14 -19 5 -9 13 -14 13 -20 3 -5 -9 -4 -11 3 -6 7 4
12 2 12 -3 0 -6 -5 -11 -11 -11 -5 0 -8 -4 -5 -8 3 -5 21 -8 41 -7 29 2 33 0
23 -12 -8 -10 -14 -11 -22 -3 -17 17 -29 11 -15 -8 13 -16 12 -16 -6 -2 -23
18 -61 19 -58 3 1 -6 -5 -10 -15 -8 -19 3 -54 -23 -47 -35 3 -5 -4 -6 -15 -3
-11 3 -17 9 -14 14 3 5 9 7 14 4 4 -3 6 5 4 17 -4 21 -4 22 5 3 8 -17 10 -18
10 -2 1 9 8 17 16 17 8 0 15 5 15 11 0 5 -6 7 -12 3 -7 -4 -9 -3 -5 1 14 16
36 14 30 -3 -4 -10 -2 -13 5 -8 12 7 11 40 -2 53 -4 5 -6 1 -4 -7 2 -10 -4
-15 -19 -14 -12 1 -22 -1 -21 -5 0 -3 0 -13 -1 -21 -1 -13 -3 -13 -10 0 -6 8
-7 18 -4 24 3 5 1 6 -5 2 -6 -4 -8 -14 -5 -24 6 -15 3 -14 -18 3 -13 11 -21
16 -17 11 4 -5 3 -15 -3 -23 -10 -11 -14 -10 -26 4 -11 13 -10 9 1 -9 18 -30
4 -39 -14 -10 -9 14 -11 14 -7 1 3 -9 1 -21 -5 -27 -12 -12 -1 -35 13 -27 5 4
9 1 9 -4 0 -6 8 -11 18 -11 16 1 16 1 0 11 -10 5 -18 15 -18 20 0 6 7 3 16 -6
9 -9 23 -14 32 -10 12 5 13 3 2 -10 -11 -13 -11 -16 1 -13 8 2 17 8 21 13 4 6
8 1 8 -10 0 -17 2 -17 10 -5 7 11 10 11 10 2 0 -9 5 -10 19 -2 14 7 22 7 27
-2 5 -7 3 -8 -6 -3 -9 5 -11 4 -6 -4 6 -9 11 -9 21 -1 10 8 16 7 24 -7 6 -11
11 -13 11 -5 0 7 5 10 10 7 6 -4 8 -10 5 -15 -6 -10 15 -8 32 3 6 4 14 3 18
-2 3 -5 13 -10 23 -10 26 -1 84 -8 117 -15 52 -10 262 -25 475 -33 296 -12
2008 -8 2460 6 651 19 1039 25 2570 45 324 4 564 21 737 51 49 9 94 16 101 17
6 1 12 6 12 11 0 5 6 7 14 4 10 -4 18 4 25 24 6 16 6 27 2 24 -5 -2 -16 6 -24
18 -8 13 -21 25 -29 26 -7 1 -24 3 -39 4 -14 2 -29 6 -35 9 -5 3 -31 4 -59 2
l-50 -3 85 40 c46 22 87 43 90 47 3 4 28 22 56 40 68 43 94 72 101 116 l6 37
-82 -56 c-46 -30 -91 -55 -102 -55 -11 0 -42 -11 -69 -25 -28 -14 -80 -37
-117 -51 -38 -14 -97 -37 -133 -50 -121 -46 -262 -79 -385 -90 -38 -3 -72 -7
-76 -9 -3 -2 -224 -5 -490 -5 -266 -1 -522 -5 -569 -10 -47 -5 -159 -12 -250
-14 -91 -3 -199 -10 -240 -16 -166 -22 -349 -30 -683 -29 -590 2 -929 9 -1197
24 -47 3 -157 7 -245 10 -88 2 -194 9 -235 15 -41 6 -102 13 -135 15 -60 4
-119 13 -270 40 -44 8 -125 22 -180 31 -112 17 -99 15 -250 44 -253 48 -530
133 -810 249 -145 60 -431 203 -519 261 -42 28 -81 50 -85 50 -22 0 -123 95
-142 133 -12 23 -30 53 -40 67 -41 58 -18 166 31 140 17 -9 25 -16 100 -79 20
-16 65 -39 100 -51 36 -11 77 -30 92 -41 15 -10 33 -19 41 -19 18 0 206 -76
223 -91 8 -6 20 -9 29 -6 8 4 17 2 20 -3 4 -6 16 -10 27 -10 11 0 26 -6 32
-14 6 -8 29 -17 51 -21 68 -9 87 -14 99 -25 7 -5 15 -7 19 -4 3 3 15 1 26 -6
12 -6 68 -20 124 -32 56 -11 143 -28 192 -38 116 -24 137 -28 142 -34 2 -2 -3
-34 -12 -70 -24 -96 -19 -116 35 -143 106 -53 671 -158 1015 -188 33 -3 97
-10 143 -16 106 -12 256 -22 355 -23 67 -1 81 2 93 18 20 28 18 120 -6 250
-11 60 -20 115 -20 121 0 11 148 28 230 27 42 -1 423 58 468 72 9 3 98 17 197
31 99 14 221 32 270 40 275 45 501 68 542 53 22 -7 23 -11 18 -99 -3 -50 -10
-98 -16 -106 -8 -9 -9 -20 -2 -36 5 -12 8 -67 6 -123 -4 -76 -1 -110 11 -137
l15 -37 83 -1 c154 -2 437 7 528 16 25 3 144 10 265 15 121 6 261 13 310 15
50 3 173 7 275 10 297 9 414 19 444 38 23 16 26 24 26 80 0 78 -21 206 -60
369 -16 70 -30 131 -30 136 0 9 30 20 144 53 37 11 83 31 101 44 17 14 37 25
43 25 30 0 37 200 13 435 -7 70 -6 82 10 100 18 20 17 25 -32 175 -33 105 -48
164 -43 183 7 32 -21 123 -46 152 -12 14 -16 30 -13 53 3 18 1 32 -5 32 -6 0
-8 9 -5 20 3 12 0 20 -7 20 -7 0 -10 7 -6 16 4 9 1 23 -5 31 -7 7 -9 16 -7 19
16 15 -69 244 -90 244 -5 0 -25 36 -45 80 -20 44 -41 80 -47 80 -7 0 -10 12
-8 28 3 25 0 27 -39 30 l-42 3 -29 77 -29 77 4 185 c4 162 2 197 -16 280 -51
232 -190 383 -301 327z m81 -41 c90 -61 137 -189 163 -441 l7 -60 -35 55 c-41
65 -142 254 -173 325 -22 50 -28 99 -17 129 8 21 13 20 55 -8z m-57 -211 c3
-8 1 -15 -4 -15 -6 0 -10 7 -10 15 0 8 2 15 4 15 2 0 6 -7 10 -15z m56 -108
c0 -12 0 -11 -24 28 l-17 30 20 -24 c12 -13 21 -28 21 -34z m-1500 29 c0 -2
-7 -7 -16 -10 -8 -3 -12 -2 -9 4 6 10 25 14 25 6z m-210 -166 c-8 -5 -19 -10
-25 -10 -5 0 -3 5 5 10 8 5 20 10 25 10 6 0 3 -5 -5 -10z m-290 -214 c0 -2 -7
-7 -16 -10 -8 -3 -12 -2 -9 4 6 10 25 14 25 6z m-180 -16 c0 -5 -5 -10 -11
-10 -5 0 -7 5 -4 10 3 6 8 10 11 10 2 0 4 -4 4 -10z m90 -24 c0 -2 -7 -7 -16
-10 -8 -3 -12 -2 -9 4 6 10 25 14 25 6z m-150 -26 c0 -5 -5 -10 -11 -10 -5 0
-7 5 -4 10 3 6 8 10 11 10 2 0 4 -4 4 -10z m-112 -70 c-7 -10 -14 -17 -17 -15
-4 4 18 35 25 35 2 0 -1 -9 -8 -20z m82 -10 c0 -5 -5 -10 -11 -10 -5 0 -7 5
-4 10 3 6 8 10 11 10 2 0 4 -4 4 -10z m-135 -40 c3 -5 1 -10 -4 -10 -6 0 -11
5 -11 10 0 6 2 10 4 10 3 0 8 -4 11 -10z m95 -20 c0 -5 -2 -10 -4 -10 -3 0 -8
5 -11 10 -3 6 -1 10 4 10 6 0 11 -4 11 -10z m168 -712 c15 -17 44 -50 65 -73
20 -23 37 -47 37 -52 0 -5 9 -18 21 -29 12 -10 27 -31 35 -46 7 -14 19 -32 26
-40 7 -8 18 -21 23 -30 6 -10 40 -61 76 -115 36 -54 76 -116 88 -138 12 -22
46 -78 76 -125 89 -139 203 -383 221 -473 2 -14 0 -16 -10 -8 -9 7 -18 6 -33
-4 -11 -8 -24 -11 -28 -7 -5 4 -5 2 -2 -4 4 -7 0 -17 -8 -24 -8 -7 -15 -9 -15
-4 -1 5 -9 -1 -19 -14 -13 -15 -21 -18 -24 -10 -3 8 -6 6 -6 -5 -1 -10 -5 -15
-11 -12 -5 3 -10 2 -10 -2 0 -5 -10 -9 -21 -10 -12 -1 -29 -9 -39 -18 -16 -15
-19 -13 -35 27 -10 24 -19 48 -21 55 -4 21 -86 194 -121 256 -18 32 -33 63
-33 68 0 5 -7 12 -15 15 -8 4 -13 9 -10 13 2 4 -7 24 -20 44 -14 20 -25 39
-25 42 0 3 -8 18 -19 33 -10 15 -53 83 -96 152 -67 106 -155 232 -176 250 -3
3 -24 30 -46 60 -22 30 -48 61 -57 69 -22 19 -49 71 -41 79 11 12 219 111 233
111 8 1 26 -13 40 -31z m1747 -96 c-3 -3 -11 0 -18 7 -9 10 -8 11 6 5 10 -3
15 -9 12 -12z m-3225 -86 c0 -3 -4 -8 -10 -11 -5 -3 -10 -1 -10 4 0 6 5 11 10
11 6 0 10 -2 10 -4z m-197 -111 c-3 -9 -8 -14 -10 -11 -3 3 -2 9 2 15 9 16 15
13 8 -4z m-139 -95 c-6 -6 -10 -3 -10 10 0 13 4 16 10 10 7 -7 7 -13 0 -20z
m56 26 c0 -2 -8 -10 -17 -17 -16 -13 -17 -12 -4 4 13 16 21 21 21 13z m617
-48 c-3 -8 -6 -5 -6 6 -1 11 2 17 5 13 3 -3 4 -12 1 -19z m-767 -38 c0 -5 -2
-10 -4 -10 -3 0 -8 5 -11 10 -3 6 -1 10 4 10 6 0 11 -4 11 -10z m-510 -95 c-7
-9 -15 -13 -19 -10 -3 3 1 10 9 15 21 14 24 12 10 -5z m100 -25 c-8 -5 -18 -6
-24 -3 -5 4 -1 10 10 13 24 9 34 2 14 -10z m75 10 c3 -5 1 -10 -4 -10 -6 0
-11 5 -11 10 0 6 2 10 4 10 3 0 8 -4 11 -10z m-361 -35 c3 -8 1 -15 -4 -15 -6
0 -10 7 -10 15 0 8 2 15 4 15 2 0 6 -7 10 -15z m346 -5 c0 -5 -2 -10 -4 -10
-3 0 -8 5 -11 10 -3 6 -1 10 4 10 6 0 11 -4 11 -10z m-73 -6 c-3 -3 -12 -4
-19 -1 -8 3 -5 6 6 6 11 1 17 -2 13 -5z m2966 -548 c4 -11 1 -13 -10 -9 -12 5
-15 2 -10 -10 4 -11 2 -14 -9 -10 -13 5 -13 8 2 24 21 23 20 23 27 5z m-67
-41 c-1 -8 -5 -17 -8 -21 -5 -4 -4 16 1 34 3 9 9 -1 7 -13z m-4481 -45 c3 -5
1 -10 -4 -10 -6 0 -11 5 -11 10 0 6 2 10 4 10 3 0 8 -4 11 -10z m779 -697 c4
-11 1 -11 -14 -3 -24 13 -25 17 -5 17 8 0 16 -6 19 -14z m36 11 c0 -8 -19 -13
-24 -6 -3 5 1 9 9 9 8 0 15 -2 15 -3z m-105 -13 c3 -5 2 -12 -3 -15 -5 -3 -9
1 -9 9 0 17 3 19 12 6z m6359 -9 c3 -5 -1 -9 -9 -9 -8 0 -12 4 -9 9 3 4 7 8 9
8 2 0 6 -4 9 -8z m49 -25 c12 -19 13 -24 2 -24 -8 0 -14 3 -13 6 2 21 -4 31
-14 25 -7 -4 -8 -3 -4 4 10 16 11 15 29 -11z m-6720 -24 c-4 -11 -3 -14 5 -9
7 4 12 3 12 -1 0 -5 -10 -14 -22 -22 -21 -13 -22 -13 -9 2 10 13 10 17 1 17
-10 0 -10 3 0 15 16 20 21 19 13 -2z m-50 -38 c-3 -9 -8 -14 -10 -11 -3 3 -2
9 2 15 9 16 15 13 8 -4z"/>
<path d="M1880 1004 c0 -8 5 -12 10 -9 6 4 8 11 5 16 -9 14 -15 11 -15 -7z"/>
<path d="M1635 989 c-4 -6 -5 -12 -2 -15 2 -3 7 2 10 11 7 17 1 20 -8 4z"/>
<path d="M1550 960 c0 -11 4 -20 9 -20 5 0 7 9 4 20 -3 11 -7 20 -9 20 -2 0
-4 -9 -4 -20z"/>
<path d="M1326 911 c-3 -5 2 -15 12 -22 15 -12 16 -12 5 2 -7 9 -10 19 -6 22
3 4 4 7 0 7 -3 0 -8 -4 -11 -9z"/>
</g>
</svg>
